<svg width="399" height="391" viewBox="0 0 399 391" fill="none" xmlns="http://www.w3.org/2000/svg">
<path d="M212.5 192.501C269.7 139.701 279 90.6667 275 73.5C274.6 72.3 265.5 76.5004 262.5 81.5008L198 191.501L201 193.501L203.5 190.501L206.5 193.501L210.5 190.501L212.5 192.501Z" fill="#E9E1CE"/>
<path d="M357.042 164.674C298.786 130.87 276.439 89.0333 270.5 71.5C270.154 70.2395 274.874 67.5989 279 71.5001L364.905 159.521L364.139 162.298L361.261 160.16L360.975 163.89L357.233 162.187L357.042 164.674Z" fill="#E9E1CE"/>
<path d="M8.30445 129.72L98.8053 5.46347C101.209 2.16277 105.379 0.655304 109.338 1.65539L270.241 42.3012C272.049 42.758 273.693 43.7112 274.988 45.0532L377.426 151.223C380.52 154.43 380.475 159.525 377.323 162.677C374.114 165.886 368.906 165.866 365.721 162.633L282.155 77.7878C277.54 73.1023 269.737 74.0707 266.407 79.742L199.781 193.224C197.446 197.201 192.694 199.065 188.277 197.737L13.508 145.183C6.90844 143.199 4.24716 135.29 8.30445 129.72Z" fill="#FF8426"/>
<path d="M278.5 83C290.167 101 321.6 141.6 354 160" stroke="#BAAF92" stroke-width="0.5"/>
<path d="M287.5 89.5C299.167 107.5 331.5 138.5 360 158.5" stroke="#BAAF92" stroke-width="0.5"/>
<path d="M270.5 80.5001C271.667 78.6668 275.2 75.9001 280 79.5001M273.5 81.5001C274 80.6668 275.5 79.4001 277.5 81.0001M270.5 87.5001C270.5 97.0001 268 131.5 219.5 180M261.5 98.5001C261.167 112.167 244 145.5 215.5 174.5" stroke="#BAAF92" stroke-width="0.5"/>
<path d="M339 174.443L334.492 183.885L201.26 229L52 180.738L53.0017 171.295L58.5113 173.393V167.098L65.5236 171.295V165L193.246 208.541H219.291L327.48 169.197L323.473 177.066L334.492 172.344L331.487 177.066L339 174.443Z" fill="#E9E1CE"/>
<path d="M192 213C194.5 217 209.245 220.244 217 213" stroke="#BAAF92" stroke-width="0.5"/>
<path d="M197 212C198.28 214.731 207.368 217.098 213 212" stroke="#BAAF92" stroke-width="0.5"/>
<path d="M39 186.692C39 179.992 45.4598 175.187 51.8766 177.114L188 218L192.272 220.719C193.075 221.229 194.004 221.505 194.955 221.516C197.75 221.546 200 223.82 200 226.615V376.731C200 383.452 193.503 388.26 187.076 386.294L46.0756 343.175C41.8714 341.889 39 338.009 39 333.612V186.692Z" fill="#583F31"/>
<path d="M221.771 386.011C215.349 387.959 208.869 383.153 208.869 376.442L208.869 226.221C208.869 222.849 212.091 220.409 215.337 221.325C217.737 222.003 220.274 220.84 221.329 218.581L223 215L338.121 180.815C344.532 178.911 350.968 183.714 350.968 190.401L350.968 339.41C350.968 343.815 348.086 347.701 343.87 348.98L221.771 386.011Z" fill="#583F31"/>
<path d="M223 215C212.5 224.697 193.5 222 188 218V386C199.2 391.2 216 388.167 223 386V215Z" fill="#785E4D"/>
<path d="M319.5 178L225.5 209.5M323 182L265 199.5" stroke="#BAAF92" stroke-width="0.5"/>
<path d="M72.5 173L147 197.5M153.5 199.5L181 208.5M63.5 176.5L173.5 209.5" stroke="#BAAF92" stroke-width="0.5"/>
</svg>
